<?xml version="1.0" standalone="no"?><!DOCTYPE svg PUBLIC "-//W3C//DTD SVG 1.1//EN" "http://www.w3.org/Graphics/SVG/1.1/DTD/svg11.dtd"><svg t="1721712871055" class="icon" viewBox="0 0 1024 1024" version="1.1" xmlns="http://www.w3.org/2000/svg" p-id="7350" xmlns:xlink="http://www.w3.org/1999/xlink" width="200" height="200"><path d="M346.46016 398.37184c5.3504 0 8.28928 4.14208 6.51776 9.18528l-58.79296 167.85408c-1.77664 5.04832-7.60832 9.18016-12.96384 9.18016h-43.392c-5.3504 0-10.78784-4.25984-12.0832-9.44128 0 0-29.6704-109.20448-29.6704-115.53792l-34.21696 115.57888c-1.408 5.18144-6.93248 9.40032-12.29312 9.40032h-39.82848c-5.35552 0-11.19232-4.14208-12.95872-9.1904L37.98016 407.552c-1.78688-5.03808 1.152-9.18016 6.50752-9.18016h41.02144c5.3504 0 10.80832 4.2496 12.12928 9.44128 0 0 33.18784 120.69888 33.18784 123.85792l33.24416-123.84256c1.28-5.20192 6.71744-9.45664 12.07808-9.45664h37.45792c5.3504 0 10.81856 4.2496 12.14976 9.43616 0 0 31.58016 113.18272 33.17248 125.04576l34.37568-125.04576c1.31584-5.18656 6.77376-9.43616 12.13952-9.43616h41.01632zM667.904 398.37184c5.34528 0 8.28416 4.14208 6.51264 9.18528l-58.78784 167.85408c-1.78176 5.04832-7.59808 9.18016-12.94848 9.18016h-43.41248c-5.36064 0-10.78784-4.25984-12.0832-9.44128 0 0-29.6704-109.20448-29.6704-115.53792l-34.21696 115.57888c-1.408 5.18144-6.9376 9.40032-12.29824 9.40032h-39.82848c-5.3504 0-11.1872-4.14208-12.95872-9.1904L359.40864 407.552c-1.75616-5.03808 1.17248-9.18016 6.52288-9.18016h41.02144c5.35552 0 10.81856 4.2496 12.1344 9.44128 0 0 33.19296 120.69888 33.19296 123.85792l33.23392-123.84256c1.29024-5.20192 6.7328-9.45664 12.07808-9.45664h37.46304c5.3504 0 10.79296 4.25472 12.0832 9.4464 0 0 30.63808 112.78336 33.2288 125.0304l34.37056-125.04576c1.33632-5.18656 6.77888-9.44128 12.13952-9.44128l41.02656 0.01024zM987.41248 398.37184c6.43072 0 9.95328 4.95616 7.82336 11.02336l-57.50272 164.18304c-2.12992 6.0672-9.12384 11.008-15.55968 11.008h-39.49056c-6.43072 0-12.95872-5.09952-14.51008-11.33056 0 0-29.19936-107.29984-29.19936-113.64352l-33.69984 113.70496c-1.68448 6.21056-8.33024 11.27936-14.75072 11.27936h-35.92704c-6.43072 0-13.44-4.96128-15.55968-11.01824L681.5232 409.40544c-2.14016-6.0672 1.39264-11.02848 7.81824-11.02848h37.12c6.43072 0 12.97408 5.09952 14.56128 11.32544 0 0 32.7168 118.8096 32.7168 121.96352l32.77312-121.95328c1.55648-6.24128 8.07936-11.34592 14.49984-11.34592h33.5616c6.43584 0 12.98944 5.09952 14.58176 11.32032 0 0 31.09376 111.29856 32.6912 123.1616l33.8944-123.14624c1.59744-6.23616 8.15616-11.32544 14.57664-11.32544l37.0944-0.00512z" p-id="7351" fill="#bfbfbf"></path><path d="M156.4416 271.48288h70.2976c4.80256 0 9.29792-2.0992 12.29824-5.80096a322.88768 322.88768 0 0 1 22.4-24.4992c32.59904-32.50176 70.5024-58.10176 112.70144-75.89888 43.60192-18.40128 89.99936-27.8016 137.90208-27.8016 47.8976 0 94.30016 9.40032 137.90208 27.8016 42.19904 17.80224 80.10752 43.40224 112.70656 75.89888a304.22528 304.22528 0 0 1 21.3248 23.34208c0.47104 0.56832 3.57888 3.38944 5.5808 4.352 2.87744 1.38752 8.74496 1.17248 8.74496 1.17248h66.95936s1.40288-0.11264 2.64192-0.39936c5.6064-1.3056 7.6288-8.3968 5.87264-11.12064-76.59008-118.83008-209.77152-197.0432-361.72288-197.0432-152.09984 0-285.696 78.80192-362.29632 197.69856-3.40992 5.30432 0.38912 12.29824 6.68672 12.29824zM777.78432 724.87424c-5.74464 6.69184-8.84736 10.624-15.14496 16.91136-32.59904 32.50688-70.5024 58.10688-112.70144 75.89888-43.60704 18.40128-89.99936 27.8016-137.9072 27.8016-47.90272 0-94.30016-9.28256-137.90208-27.8016-42.19904-17.80736-80.1024-43.40736-112.70144-75.89888a400.35328 400.35328 0 0 1-22.4-24.49408 15.88224 15.88224 0 0 0-12.29824-5.80608h-70.2976c-6.2976 0-10.19904 6.99904-6.70208 12.29312 76.6976 119.19872 210.89792 198.09792 363.40224 197.69856 152.89344-0.37888 284.90752-77.37856 360.91904-196.93056 1.16736-1.83808 3.10272-6.19008-0.85504-11.01824-3.04128-3.712-11.22816-3.16416-11.22816-3.16416H801.3824s-6.76864-0.4864-12.36992 2.56c-5.12 2.78016-9.82016 10.32192-11.22816 11.95008z" p-id="7352" fill="#bfbfbf"></path></svg>