<?xml version="1.0" standalone="no"?><!DOCTYPE svg PUBLIC "-//W3C//DTD SVG 1.1//EN" "http://www.w3.org/Graphics/SVG/1.1/DTD/svg11.dtd"><svg t="1721721776601" class="icon" viewBox="0 0 1024 1024" version="1.1" xmlns="http://www.w3.org/2000/svg" p-id="5249" xmlns:xlink="http://www.w3.org/1999/xlink" width="200" height="200"><path d="M512 1024C232.727273 1024 0 791.272727 0 512S232.727273 0 512 0 1024 232.727273 1024 512 791.272727 1024 512 1024zM512 83.781818C279.272727 83.781818 83.781818 279.272727 83.781818 512c0 232.727273 186.181818 428.218182 428.218182 428.218182 232.727273 0 428.218182-186.181818 428.218182-428.218182C940.218182 279.272727 744.727273 83.781818 512 83.781818z" fill="#098808" p-id="5250"></path><path d="M459.682909 701.719273c-18.618182 0-27.927273 0-37.236364-9.309091L254.882909 524.846545c-18.618182-18.618182-18.618182-46.545455 0-65.163636 18.618182-18.618182 46.545455-18.618182 65.163636 0l139.636364 139.636364L701.719273 347.973818c18.618182-18.618182 46.545455-18.618182 65.163636 0 18.618182 18.618182 18.618182 46.545455 0 65.163637l-279.272727 279.272727c-9.309091 9.309091-18.618182 9.309091-27.927273 9.309091z" fill="#098808" p-id="5251"></path></svg>